<svg xmlns="http://www.w3.org/2000/svg" width="128" height="128">
  <g class="currentLayer" transform="translate(-15 15)">
    <path fill="#252825" fill-rule="nonzero" stroke="none" id="svg_13"
     d="M55.92059735803605,58.79862090049744
      L55.92059735803605,29.904750900497447 L55.92059735803605,29.904750900497447
      C55.92059735803605,17.49325090049743 65.98210735803605,7.431730900497428
      78.39360735803604,7.431730900497428 L78.39360735803604,7.431730900497428
      L78.39360735803604,7.431730900497428 C84.35381735803605,7.431730900497428
      90.06991735803604,9.799420900497438 94.28443735803603,14.013930900497428
      C98.49893735803602,18.228430900497443 100.86662735803606,23.944530900497426
      100.86662735803606,29.904750900497447 L100.86662735803606,33.11518090049745
      L88.02489735803601,33.11518090049745 L88.02489735803601,29.904750900497447
      C88.02489735803601,24.585530900497446 83.71281735803603,20.27346090049744
      78.39360735803604,20.27346090049744 L78.39360735803604,20.27346090049744
      L78.39360735803604,20.27346090049744 C73.07439735803604,20.27346090049744
      68.76231735803606,24.585530900497446 68.76231735803606,29.904750900497447
      L68.76231735803606,58.79862090049744 L55.92059735803605,58.79862090049744 z"
      style="color: rgb(108, 145, 194);" fill-opacity="1"/>
    <path fill="#f9fff9" stroke="none" fill-rule="nonzero" id="svg_1"
      d="M109.8512979144478,50.768391558437344 C109.5549379144478,38.26052155843735
      99.3287579144478,28.212791558437345 86.75395791444777,28.20642155843734
      C78.34739791444781,28.212791558437345 71.00518791444779,32.706071558437344
      66.97080791444779,39.417301558437345 C65.0747079144478,38.37524155843735
      62.89180791444778,37.76658155843734 60.5654979144478,37.76658155843734
      C53.30296791444778,37.77295155843734 47.39478791444776,43.52498155843736
      47.13028791444776,50.72378155843734 C39.50446791444779,53.22854155843734
      33.98506791444777,60.363611558437356 33.978697914447764,68.84347155843736
      C33.978697914447764,79.39788155843735 42.54141791444778,87.96378155843735
      53.09901791444776,87.96378155843735 L53.09901791444776,87.95741155843734
      L103.68818791444778,87.95741155843734 C114.2425979144478,87.95741155843734
      122.80850791444777,79.39151155843734 122.80850791444777,68.83709155843735
      C122.79575791444779,60.43053155843734 117.37195791444776,53.32733155843735
      109.8512979144478,50.768391558437344 z" style="color: rgb(0, 0, 0);"
      fill-opacity="1"/>
    <path fill="#6c91c2" fill-rule="nonzero" stroke="none" id="svg_2"
      d="M68.39359854442637,58.06113670511823 L78.39360795220176,48.09471628083625
      L88.39361735997755,58.06113670511823 L83.39361231939915,58.06113670511823
      L83.39361231939915,68.07551368611021 L73.39360358501438,68.07551368611021
      L73.39360358501438,58.06113670511823 L68.39359854442637,58.06113670511823 z"
      style="color: rgb(0, 0, 0);" fill-opacity="1"/>
  </g>
</svg>
